<svg width="32" height="33" viewBox="0 0 32 33" fill="none" xmlns="http://www.w3.org/2000/svg">
<path d="M16 30.5C8.28 30.5 2 24.22 2 16.5C2 8.78 8.28 2.5 16 2.5C23.72 2.5 30 8.78 30 16.5C30 24.22 23.72 30.5 16 30.5ZM16 4.5C9.38 4.5 4 9.88 4 16.5C4 23.12 9.38 28.5 16 28.5C22.62 28.5 28 23.12 28 16.5C28 9.88 22.62 4.5 16 4.5Z" fill="#111111"/>
<path d="M22 17.5H10C9.44 17.5 9 17.06 9 16.5C9 15.94 9.44 15.5 10 15.5H22C22.56 15.5 23 15.94 23 16.5C23 17.06 22.56 17.5 22 17.5Z" fill="#111111"/>
</svg>
